# xmcd
#
# Track frame offsets:
#	150
#	12905
#	24797
#	39305
#	53330
#	67542
#	81130
#	94965
#	108892
#	122067
#	136250
#	149200
#	164342
#	179187
#	194187
#	207717
#	221432
#	235680
#	251197
#	266575
#	281490
#	295990
#	309318
#	321648
#	335263
#
# Disc length: 4634 seconds
#
# Revision: 1
# Processed by: cddbd v1.5.2PL0 Copyright (c) Steve Scherf et al.
# Submitted via: EZCDAudioConverter 5.0.0.1
#
DISCID=7a121819
DTITLE=Billie Holiday - Lady Day: The Very Best of Billie Holiday
DYEAR=1997
DGENRE=Blues
TTITLE0=These Foolish Things
TTITLE1=Summertime
TTITLE2=A Fine Romance
TTITLE3=The Way You Look Tonight
TTITLE4=I've Got My Love To Keep Me Warm
TTITLE5=They Can't Take That Away From Me
TTITLE6=I'll Never Be The Same
TTITLE7=Nice Work If You Can Get It
TTITLE8=Can't Help Lovin' Dat Man
TTITLE9=When You're Smiling
TTITLE10=Any Old Time
TTITLE11=The Very Thought Of You
TTITLE12=Strange Fruit
TTITLE13=Good Morning Heartache
TTITLE14=Georgia On My Mind
TTITLE15=All Of Me
TTITLE16=Easy Living
TTITLE17=God Bless The Child
TTITLE18=I Loves You, Porgy
TTITLE19=Lover Man (Oh, Where Can You Be?)
TTITLE20=Don't Explain
TTITLE21=You're My Thrill
TTITLE22=There Is No Greater Love
TTITLE23=That Ole Devil Called Love
TTITLE24=For All We Know
EXTD=
EXTT0=
EXTT1=
EXTT2=
EXTT3=
EXTT4=
EXTT5=
EXTT6=
EXTT7=
EXTT8=
EXTT9=
EXTT10=
EXTT11=
EXTT12=
EXTT13=
EXTT14=
EXTT15=
EXTT16=
EXTT17=
EXTT18=
EXTT19=
EXTT20=
EXTT21=
EXTT22=
EXTT23=
EXTT24=
PLAYORDER=
